<?xml version="1.0" standalone="no"?>
<!DOCTYPE svg PUBLIC "-//W3C//DTD SVG 20010904//EN"
 "http://www.w3.org/TR/2001/REC-SVG-20010904/DTD/svg10.dtd">
<svg version="1.0" xmlns="http://www.w3.org/2000/svg"
 width="700.000000pt" height="700.000000pt" viewBox="0 0 700.000000 700.000000"
 preserveAspectRatio="xMidYMid meet">
<metadata>
Created by potrace 1.14, written by Peter Selinger 2001-2017
</metadata>
<g transform="translate(0.000000,700.000000) scale(0.100000,-0.100000)"
fill="#000000" stroke="none">
<path d="M3288 6985 c-2 -2 -42 -6 -88 -9 -47 -4 -94 -8 -105 -10 -11 -2 -42
-7 -70 -10 -244 -32 -605 -128 -810 -215 -22 -10 -60 -26 -85 -36 -77 -32
-373 -185 -407 -211 -17 -13 -34 -24 -38 -24 -20 0 -301 -203 -420 -304 -80
-67 -328 -315 -397 -396 -250 -295 -452 -631 -591 -985 -129 -328 -202 -639
-235 -1000 -9 -105 -9 -488 1 -590 12 -119 21 -193 36 -285 16 -98 21 -123 27
-142 3 -10 7 -30 10 -45 3 -16 18 -77 34 -138 303 -1144 1178 -2066 2305
-2426 97 -32 348 -95 411 -105 22 -3 50 -7 64 -10 14 -2 41 -7 60 -9 19 -3 46
-7 60 -10 150 -28 766 -28 905 0 11 2 43 7 70 10 28 3 59 8 70 10 11 3 31 7
45 9 491 86 1015 316 1437 632 62 47 118 90 125 97 7 6 45 39 83 72 525 452
924 1107 1089 1788 19 78 37 156 40 172 22 119 37 217 41 260 3 28 7 66 10 85
2 19 6 143 9 275 4 277 -2 376 -39 615 -41 263 -130 575 -231 810 -47 107
-154 325 -183 370 -33 51 -41 65 -48 80 -15 35 -190 288 -244 355 -167 202
-294 335 -460 480 -42 38 -177 145 -205 165 -302 210 -477 309 -742 419 -195
82 -535 182 -697 205 -40 6 -74 12 -130 21 -16 3 -57 7 -90 11 -33 3 -71 8
-85 11 -29 6 -526 13 -532 8z"/>
</g>
</svg>
