<svg version="1.0" xmlns="http://www.w3.org/2000/svg" width="933.333" height="933.333" viewBox="0 0 700 700"><path d="M42.7 42.7c-.4.3-.7 13.4-.7 29.1 0 23.1.2 28.3 1.3 27.9 1.4-.5 79.5-55.2 81.2-56.8.5-.5-15.3-.9-40.1-.9-22.6 0-41.4.3-41.7.7zM385.6 42.9c1.2 1.1 271.5 168.2 273.2 168.8.9.4 1.2-16.9 1.2-84.6V42H522.3c-80.9 0-137.3.4-136.7.9zM146 152.9 42.5 225.7l-.3 217.2L42 660h618l-.2-163.6-.3-163.7-204.4-126.3C342.7 136.9 250.4 80 250.1 80.1c-.3 0-47.2 32.8-104.1 72.8zm72.5 44.5c6 1.5 14.4 4.7 20.9 7.9l10.9 5.4 5.6-3.3c22.4-13.3 57.2-17 86.1-9.3 26.7 7.2 48.8 25.7 55.3 46.4l2.2 7v362l-29.7.3-29.8.2-.2-181.7c-.3-181.2-.3-181.8-2.3-185.3-1.2-1.9-4-4.9-6.3-6.7-14.4-11-42.3-7-49.1 7l-2.1 4.3V614h-60V433.1c0-125.2-.3-181.8-1.1-183.8-1.5-4-6.6-9.1-12.4-12.1-4.5-2.5-6-2.7-16-2.7-9.4 0-11.7.3-16 2.3-6.3 2.9-10.2 6.6-12.6 11.7-1.8 3.8-1.9 10.9-1.9 184.7V614h-60V434.7c0-195.2-.2-186.2 5.7-198.4 3.3-6.8 13.4-17.8 21.8-23.8 12-8.5 26.9-14.5 42.3-17 13.5-2.2 36.1-1.3 48.7 1.9z"/></svg>