<?xml version="1.0" standalone="no"?>
<!DOCTYPE svg PUBLIC "-//W3C//DTD SVG 20010904//EN"
 "http://www.w3.org/TR/2001/REC-SVG-20010904/DTD/svg10.dtd">
<svg version="1.0" xmlns="http://www.w3.org/2000/svg"
 width="1440.000000pt" height="1440.000000pt" viewBox="0 0 1440.000000 1440.000000"
 preserveAspectRatio="xMidYMid meet">
<metadata>
Created by potrace 1.14, written by Peter Selinger 2001-2017
</metadata>
<g transform="translate(0.000000,1440.000000) scale(0.100000,-0.100000)"
fill="#000000" stroke="none">
<path d="M5549 14395 c-2 -2 -34 -6 -71 -9 -37 -4 -77 -9 -89 -11 -13 -3 -41
-7 -64 -10 -22 -4 -58 -11 -80 -17 -22 -5 -48 -12 -57 -13 -49 -10 -178 -50
-239 -75 -38 -15 -69 -26 -69 -24 0 7 -225 -109 -228 -118 -2 -4 -8 -8 -14 -8
-14 0 -190 -117 -249 -165 -126 -103 -238 -210 -335 -320 -27 -31 -55 -63 -61
-70 -7 -8 -13 -18 -13 -24 0 -6 -4 -11 -8 -11 -8 0 -105 -133 -128 -175 -6
-11 -26 -45 -44 -75 -49 -82 -121 -232 -136 -285 -1 -5 -14 -41 -28 -80 -22
-63 -43 -134 -51 -175 -2 -8 -8 -33 -13 -55 -6 -22 -13 -57 -16 -77 -3 -21 -8
-53 -11 -70 -3 -18 -8 -51 -12 -73 -4 -22 -9 -2820 -10 -6217 l-3 -6178 447
-1 c247 -1 452 0 458 1 11 2 18 2 85 1 25 0 53 -1 63 -1 9 0 23 0 30 -1 6 0
30 0 52 0 22 1 48 1 58 1 9 0 23 0 30 1 6 0 66 -1 132 -1 l120 -2 2 44 c2 23
2 111 2 193 0 83 0 157 0 165 0 8 0 80 0 160 0 80 0 152 0 160 0 8 0 80 0 160
0 80 0 152 0 160 0 8 0 80 0 160 0 80 0 152 0 160 0 8 0 80 0 160 0 80 0 152
0 160 0 8 0 80 0 160 0 80 0 152 0 160 0 8 0 80 0 160 0 80 0 152 0 160 0 8 0
80 0 160 0 80 0 152 0 160 0 8 0 80 0 160 0 80 0 152 0 160 0 8 0 80 0 160 0
80 0 152 0 160 0 8 0 80 0 160 0 80 0 152 0 160 0 8 0 80 0 160 -1 80 0 156 1
170 2 30 2 2 2 250 -1 113 -1 216 -2 230 -1 14 -2 32 -2 40 1 12 1 303 0 345
0 6 1 33 1 60 0 28 0 59 0 70 0 11 0 92 0 180 0 88 0 165 -1 170 0 6 1 33 1
60 0 28 0 59 0 70 0 11 0 92 0 180 0 88 0 165 -1 170 0 6 1 33 1 60 0 28 0 59
0 70 0 11 0 92 0 180 0 88 0 165 -1 170 0 6 1 33 1 60 0 28 0 59 0 70 0 11 0
92 0 180 0 88 0 165 -1 170 0 6 1 33 1 60 0 28 0 59 0 70 0 11 0 92 0 180 0
88 0 165 -1 170 0 6 1 33 1 60 0 28 0 59 0 70 0 11 0 92 0 180 0 88 0 165 -1
170 0 6 1 33 1 60 0 28 0 59 0 70 0 11 0 92 0 180 0 88 0 165 -1 170 0 6 1 33
1 60 0 28 0 59 0 70 0 11 0 92 0 180 0 88 0 165 -1 170 0 6 1 33 1 60 0 28 0
59 0 70 0 11 0 92 0 180 0 88 0 165 -1 170 0 6 1 33 1 60 0 28 0 59 0 70 0 11
0 92 0 180 0 88 0 165 -1 170 0 6 1 33 1 60 0 28 0 59 0 70 0 11 0 92 0 180 0
88 0 165 -1 170 0 6 1 33 1 60 0 28 0 59 0 70 0 11 0 92 0 180 0 88 0 165 -1
170 0 6 1 33 1 60 0 28 0 59 0 70 0 11 0 92 0 180 0 88 0 165 -1 170 0 6 1 33
1 60 0 28 0 59 0 70 0 11 0 92 0 180 0 88 0 165 -1 170 0 6 1 33 1 60 0 28 0
59 0 70 -1 60 0 346 1 380 1 22 2 47 1 55 -8 156 8 341 36 410 8 19 8 20 17
53 5 15 12 27 17 27 5 0 9 8 9 19 0 10 7 24 15 31 8 7 15 17 15 23 0 29 143
177 202 208 12 6 25 15 28 19 6 9 139 71 160 75 8 2 34 8 57 14 22 6 60 12 82
14 23 1 41 6 41 10 0 4 7 4 16 -1 9 -5 32 -6 50 -2 19 5 37 4 40 -1 3 -5 8 -8
12 -5 6 3 56 -3 142 -18 47 -8 190 -75 217 -101 8 -8 18 -15 22 -15 4 0 36
-28 70 -62 65 -65 125 -146 153 -208 22 -48 57 -168 62 -210 2 -19 4 -2808 5
-6197 l1 -6163 740 0 740 0 1 6158 c0 3386 2 6169 4 6185 10 73 29 147 53 202
48 110 141 229 225 285 20 14 37 28 37 33 0 4 6 7 14 7 7 0 19 7 26 15 7 9 15
13 18 11 3 -3 19 2 36 11 56 29 64 32 124 48 53 13 169 29 197 27 6 -1 40 -3
76 -6 37 -3 87 -10 110 -17 24 -7 52 -14 61 -16 18 -3 110 -46 143 -66 33 -20
108 -80 135 -108 38 -40 80 -88 80 -93 0 -3 13 -24 28 -48 33 -49 72 -142 72
-169 0 -10 4 -20 9 -24 6 -3 11 -13 12 -23 1 -9 4 -2804 6 -6211 2 -3407 5
-6196 7 -6198 3 -3 36 -4 111 -2 11 0 166 0 345 0 179 0 330 1 335 1 8 0 591
0 648 -1 16 0 17 300 16 6237 0 5373 -2 6246 -15 6302 -7 36 -16 75 -18 88 -3
12 -7 30 -10 40 -3 9 -7 28 -10 42 -4 26 -51 170 -65 205 -20 46 -40 93 -57
130 -9 22 -16 43 -16 48 1 4 -3 7 -8 7 -6 0 -10 6 -10 13 0 21 -125 223 -198
320 -133 176 -248 293 -470 478 -12 11 -26 19 -31 19 -5 0 -11 4 -13 9 -3 10
-128 92 -203 134 -101 56 -330 157 -357 157 -4 0 -19 5 -35 11 -15 7 -35 13
-43 14 -8 2 -40 10 -70 18 -48 13 -88 22 -150 33 -17 3 -66 10 -150 21 -116
16 -504 8 -600 -12 -14 -3 -38 -7 -55 -10 -59 -9 -161 -34 -230 -57 -38 -12
-74 -23 -80 -23 -5 -1 -27 -9 -49 -18 -21 -9 -41 -17 -43 -17 -29 0 -374 -182
-381 -202 -2 -4 -10 -8 -18 -8 -8 0 -14 -4 -14 -10 0 -5 -5 -10 -10 -10 -11 0
-129 -88 -199 -147 -24 -21 -49 -41 -55 -45 -6 -3 -38 18 -71 48 -33 29 -63
54 -66 54 -3 0 -17 9 -30 21 -13 12 -51 40 -84 62 -33 22 -62 43 -65 46 -3 3
-18 13 -35 21 -16 8 -32 18 -35 22 -14 18 -344 173 -391 183 -9 2 -39 11 -65
20 -27 9 -56 18 -64 20 -8 2 -17 4 -20 5 -3 1 -9 3 -15 4 -5 1 -23 5 -40 9
-57 14 -125 27 -230 42 -44 7 -451 16 -456 10z"/>
</g>
</svg>
