<?xml version="1.0" standalone="no"?>
<!DOCTYPE svg PUBLIC "-//W3C//DTD SVG 20010904//EN"
 "http://www.w3.org/TR/2001/REC-SVG-20010904/DTD/svg10.dtd">
<svg version="1.0" xmlns="http://www.w3.org/2000/svg"
 width="700.000000pt" height="700.000000pt" viewBox="0 0 700.000000 700.000000"
 preserveAspectRatio="xMidYMid meet">
<metadata>
Created by potrace 1.14, written by Peter Selinger 2001-2017
</metadata>
<g transform="translate(0.000000,700.000000) scale(0.100000,-0.100000)"
fill="#000000" stroke="none">
<path d="M427 6573 c-4 -3 -7 -134 -7 -291 0 -231 2 -283 13 -279 14 5 795
552 812 568 5 5 -153 9 -401 9 -226 0 -414 -3 -417 -7z"/>
<path d="M3856 6571 c12 -11 2715 -1682 2732 -1688 9 -4 12 169 12 846 l0 851
-1377 0 c-809 0 -1373 -4 -1367 -9z"/>
<path d="M1460 5471 l-1035 -728 -3 -2172 -2 -2171 3090 0 3090 0 -2 1636 -3
1637 -2044 1263 c-1124 695 -2047 1264 -2050 1263 -3 0 -472 -328 -1041 -728z
m725 -445 c60 -15 144 -47 209 -79 l109 -54 56 33 c224 133 572 170 861 93
267 -72 488 -257 553 -464 l22 -70 0 -1810 0 -1810 -297 -3 -298 -2 -2 1817
c-3 1812 -3 1818 -23 1853 -12 19 -40 49 -63 67 -144 110 -423 70 -491 -70
l-21 -43 0 -1812 0 -1812 -300 0 -300 0 0 1809 c0 1252 -3 1818 -11 1838 -15
40 -66 91 -124 121 -45 25 -60 27 -160 27 -94 0 -117 -3 -160 -23 -63 -29
-102 -66 -126 -117 -18 -38 -19 -109 -19 -1847 l0 -1808 -300 0 -300 0 0 1793
c0 1952 -2 1862 57 1984 33 68 134 178 218 238 120 85 269 145 423 170 135 22
361 13 487 -19z"/>
</g>
</svg>
